  <svg xmlns="http://www.w3.org/2000/svg">
    <symbol viewBox="0 0 40 40" id="icon">
      <path d="M.055 15.795v5.309l15.047 7.347V22.95l-9.967-4.5 9.967-4.482V8.465L.055
      15.795ZM34.315.977l-16.05 35.068h5.538L39.852.977h-5.537Z" fill="#00C4F0"/>
    </symbol>
    <symbol viewBox="0 0 40 40" id="icon-two"  xmlns:xlink="http://www.w3.org/1999/xlink"
      enable-background="new 0 0 40 40" height="40px" version="1.1"
      viewBox="0 0 128 128" width="40px" xml:space="preserve"><g>
      <path d="M2,58h56V2H2V58z M14,14h32v32H14V14z" fill="#010101"/>
      <path d="M2,126h56V70H2V126z M14,82h32v32H14V82z" fill="#010101"/>
      <path d="M70,2v56h56V2H70z M114,46H82V14h32V46z" fill="#010101"/>
      <rect fill="#010101" height="14" width="14" x="70" y="70"/>
      <rect fill="#010101" height="14" width="14" x="98" y="70"/>
      <rect fill="#010101" height="14" width="14" x="84" y="84"/>
      <rect fill="#010101" height="14" width="14" x="112" y="84"/>
      <rect fill="#010101" height="14" width="14" x="70" y="98"/>
      <rect fill="#010101" height="14" width="14" x="98" y="98"/>
      <rect fill="#010101" height="14" width="14" x="84" y="112"/>
      <rect fill="#010101" height="14" width="14" x="112" y="112"/>
      <rect fill="#010101" height="16" width="16" x="22" y="90"/>
      <rect fill="#010101" height="16" width="16" x="22" y="22"/>
      <rect fill="#010101" height="16" width="16" x="90" y="22"/>
      </g>
    </symbol>
  </svg>
