  <svg xmlns="http://www.w3.org/2000/svg">
    <symbol id="icon-tag" viewBox="0 0 40 40">
      <path d="M.055 15.795v5.309l15.047 7.347V22.95l-9.967-4.5 9.967-4.482V8.465L.055
      15.795ZM34.315.977l-16.05 35.068h5.538L39.852.977h-5.537Z" fill="#00C4F0"/>
    </symbol>
    <symbol id="icon-json" viewBox="0 0 24 24">
      <path d="M18.5,21a.49971.49971,0,0,0-.5.5V22a1.001,1.001,0,0,1-1,1H3a1.001,1.001,0,0,1-1-1V2A1.001,1.001,0,0,1,3,1H13V4a2.00229,2.00229,0,0,0,2,2h3V9.5a.5.5,0,0,0,1,0v-4a.49965.49965,0,0,0-.14648-.35352l-5-5A.49965.49965,0,0,0,13.5,0H3A2.00229,2.00229,0,0,0,1,2V22a2.00229,2.00229,0,0,0,2,2H17a2.00229,2.00229,0,0,0,2-2v-.5A.49971.49971,0,0,0,18.5,21ZM14,4V1.707L17.293,5H15A1.001,1.001,0,0,1,14,4Z" fill="#00C4F0"/>
      <path d="M22.5,11H4.5a.49971.49971,0,0,0-.5.5v8a.49971.49971,0,0,0,.5.5h18a.49971.49971,0,0,0,.5-.5v-8A.49971.49971,0,0,0,22.5,11ZM22,19H5V12H22Z" fill="#00C4F0"/>
      <path d="M11.5,17h-1a.5.5,0,0,0,0,1h1a1.5,1.5,0,0,0,0-3,.5.5,0,0,1,0-1h1a.5.5,0,0,0,0-1h-1a1.5,1.5,0,0,0,0,3,.5.5,0,0,1,0,1Z" fill="#00C4F0"/>
      <path d="M7.5,18A1.50164,1.50164,0,0,0,9,16.5v-3a.5.5,0,0,0-1,0v3a.5.5,0,0,1-1,0,.5.5,0,0,0-1,0A1.50164,1.50164,0,0,0,7.5,18Z" fill="#00C4F0"/>
      <path d="M18.5,18a.49971.49971,0,0,0,.5-.5V14h.5a.50065.50065,0,0,1,.5.5v3a.5.5,0,0,0,1,0v-3A1.50164,1.50164,0,0,0,19.5,13h-1a.49971.49971,0,0,0-.5.5v4A.49971.49971,0,0,0,18.5,18Z" fill="#00C4F0"/>
      <path d="M15.5,18A1.50164,1.50164,0,0,0,17,16.5v-2a1.5,1.5,0,0,0-3,0v2A1.50164,1.50164,0,0,0,15.5,18ZM15,14.5a.5.5,0,0,1,1,0v2a.5.5,0,0,1-1,0Z" fill="#00C4F0"/>
    </symbol>
    <symbol id="icon-laptop" viewBox="0 0 48 48" xml:space="preserve" style="enable-background:new 0 0 48 48">
      <path d="M45.6 35.5H.5v3.4c0 .6.5 1.1 1.1 1.1h44.8c.6 0 1.1-.5 1.1-1.1v-3.4h-1.9zm-17.2 3.4h-8.8v-2.2h8.8v2.2zM43.4 9.1c0-.6-.5-1.1-1.1-1.1H5.7c-.6 0-1.1.5-1.1 1.1v24.2h38.8V9.1zm-29.3.3c.6 0 1.1.5 1.1 1.1 0 .6-.5 1.1-1.1 1.1-.6 0-1.1-.5-1.1-1.1 0-.6.5-1.1 1.1-1.1zm-3.5 0c.6 0 1.1.5 1.1 1.1 0 .6-.5 1.1-1.1 1.1s-1.1-.5-1.1-1.1c0-.6.5-1.1 1.1-1.1zm-3.5 2.2c-.6 0-1.1-.5-1.1-1.1 0-.6.5-1.1 1.1-1.1.6 0 1.1.5 1.1 1.1 0 .6-.5 1.1-1.1 1.1zm32.7 18.9H8.2v-2.2h31.5v2.2zm0-4.7H8.2v-2.2h31.5v2.2zm0-4.8H8.2v-2.2h31.5V21zm0-4.8H24V14h15.8v2.2z" fill="#00C4F0"/>
    </symbol>
    <symbol id="button-arrow" viewBox="0 0 22 40" fill="none">
      <path d="M2.07568 39.0585L0.0775051 37.0107L17.0931 19.5639L0.0220261 2.06243L2.02116 0.0146294L21.0894 19.5639L2.07568 39.0585Z" fill="white"/>
    </symbol>
      <symbol id="close-modal" viewBox="0 0 24 24" fill="none">
      <path fill-rule="evenodd" clip-rule="evenodd" d="M12 1C5.925 1 1 5.925 1 12s4.925 11 11 11 11-4.925 11-11S18.075 1 12 1Zm3.707 8.707a1 1 0 0 0-1.414-1.414L12 10.586 9.707 8.293a1 1 0 1 0-1.414 1.414L10.586 12l-2.293 2.293a1 1 0 1 0 1.414 1.414L12 13.414l2.293 2.293a1 1 0 0 0 1.414-1.414L13.414 12l2.293-2.293Z" fill="#fff"/>
    </symbol>
    <!--FOOTER ICONS-->
    <symbol id='icon__emeil' viewBox="0 0 330.001 330.001" style="enable-background:new 0 0 330.001 330.001" xml:space="preserve">
      <path d="M173.871 177.097a14.982 14.982 0 0 1-8.87 2.903 14.98 14.98 0 0 1-8.871-2.903L30 84.602.001 62.603 0 275.001c.001 8.284 6.716 15
        15 15L315.001 290c8.285 0 15-6.716 15-14.999V62.602l-30.001 22-126.129 92.495z"/>
       <path d="M165.001 146.4 310.087 40.001 19.911 40z"/>
    </symbol>
    <symbol id='icon__github' viewBox="0 0 512 512">
      <rect width="512" height="512" rx="15%" fill="#1B1817"/>
      <path fill="E4E4E4" d="M335 499c14 0 12 17 12 17H165s-2-17 12-17c13 0 16-6 16-12l-1-50c-71 16-86-28-86-28-12-30-28-37-28-37-24-16 1-16 1-16 26
        2 40 26 40 26 22 39 59 28 74 22 2-17 9-28 16-35-57-6-116-28-116-126 0-28 10-51 26-69-3-6-11-32 3-67 0 0 21-7 70 26 42-12 86-12 128 0
        49-33 70-26 70-26 14 35 6 61 3 67 16 18 26 41 26 69 0 98-60 120-117 126 10 8 18 24 18 48l-1 70c0 6 3 12 16 12z"/>
    </symbol>
    <symbol id='icon__instagram' viewBox="0 0 300 300" style="enable-background:new 0 0 300 300" xml:space="preserve">
      <path d="M38.52.012h222.978C282.682.012 300 17.336 300 38.52v222.978c0 21.178-17.318 38.49-38.502
        38.49H38.52c-21.184 0-38.52-17.313-38.52-38.49V38.52C0 17.336 17.336.012 38.52.012zm180.026
        33.317c-7.438 0-13.505 6.091-13.505 13.525v32.314c0 7.437 6.067 13.514 13.505 13.514h33.903c7.426
        0 13.506-6.077 13.506-13.514V46.854c0-7.434-6.08-13.525-13.506-13.525h-33.903zm47.538 93.539h-26.396a87.715
        87.715 0 0 1 3.86 25.759c0 49.882-41.766 90.34-93.266 90.34-51.487 0-93.254-40.458-93.254-90.34 0-8.963
        1.37-17.584 3.861-25.759H33.35V253.6c0 6.563 5.359 11.902 11.916 11.902h208.907c6.563 0 11.911-5.339
        11.911-11.902V126.868zm-115.801-35.89c-33.26 0-60.24 26.128-60.24 58.388 0 32.227 26.98 58.375
        60.24 58.375 33.278 0 60.259-26.148 60.259-58.375 0-32.261-26.981-58.388-60.259-58.388z"/>

    </symbol>
  </svg>
