  <svg xmlns="http://www.w3.org/2000/svg">
    <symbol viewBox="0 0 40 40" id="icon-tag">
      <path d="M.055 15.795v5.309l15.047 7.347V22.95l-9.967-4.5 9.967-4.482V8.465L.055
      15.795ZM34.315.977l-16.05 35.068h5.538L39.852.977h-5.537Z" fill="#00C4F0"/>
    </symbol>
    <symbol viewBox="0 0 24 24" id="icon-json">
      <path d="M18.5,21a.49971.49971,0,0,0-.5.5V22a1.001,1.001,0,0,1-1,1H3a1.001,1.001,0,0,1-1-1V2A1.001,1.001,0,0,1,3,1H13V4a2.00229,2.00229,0,0,0,2,2h3V9.5a.5.5,0,0,0,1,0v-4a.49965.49965,0,0,0-.14648-.35352l-5-5A.49965.49965,0,0,0,13.5,0H3A2.00229,2.00229,0,0,0,1,2V22a2.00229,2.00229,0,0,0,2,2H17a2.00229,2.00229,0,0,0,2-2v-.5A.49971.49971,0,0,0,18.5,21ZM14,4V1.707L17.293,5H15A1.001,1.001,0,0,1,14,4Z" fill="#00C4F0"/>
      <path d="M22.5,11H4.5a.49971.49971,0,0,0-.5.5v8a.49971.49971,0,0,0,.5.5h18a.49971.49971,0,0,0,.5-.5v-8A.49971.49971,0,0,0,22.5,11ZM22,19H5V12H22Z" fill="#00C4F0"/>
      <path d="M11.5,17h-1a.5.5,0,0,0,0,1h1a1.5,1.5,0,0,0,0-3,.5.5,0,0,1,0-1h1a.5.5,0,0,0,0-1h-1a1.5,1.5,0,0,0,0,3,.5.5,0,0,1,0,1Z" fill="#00C4F0"/>
      <path d="M7.5,18A1.50164,1.50164,0,0,0,9,16.5v-3a.5.5,0,0,0-1,0v3a.5.5,0,0,1-1,0,.5.5,0,0,0-1,0A1.50164,1.50164,0,0,0,7.5,18Z" fill="#00C4F0"/>
      <path d="M18.5,18a.49971.49971,0,0,0,.5-.5V14h.5a.50065.50065,0,0,1,.5.5v3a.5.5,0,0,0,1,0v-3A1.50164,1.50164,0,0,0,19.5,13h-1a.49971.49971,0,0,0-.5.5v4A.49971.49971,0,0,0,18.5,18Z" fill="#00C4F0"/>
      <path d="M15.5,18A1.50164,1.50164,0,0,0,17,16.5v-2a1.5,1.5,0,0,0-3,0v2A1.50164,1.50164,0,0,0,15.5,18ZM15,14.5a.5.5,0,0,1,1,0v2a.5.5,0,0,1-1,0Z" fill="#00C4F0"/>
    </symbol>
    <symbol id="icon-laptop" viewBox="0 0 48 48" xml:space="preserve" style="enable-background:new 0 0 48 48">
      <path d="M45.6 35.5H.5v3.4c0 .6.5 1.1 1.1 1.1h44.8c.6 0 1.1-.5 1.1-1.1v-3.4h-1.9zm-17.2 3.4h-8.8v-2.2h8.8v2.2zM43.4 9.1c0-.6-.5-1.1-1.1-1.1H5.7c-.6 0-1.1.5-1.1 1.1v24.2h38.8V9.1zm-29.3.3c.6 0 1.1.5 1.1 1.1 0 .6-.5 1.1-1.1 1.1-.6 0-1.1-.5-1.1-1.1 0-.6.5-1.1 1.1-1.1zm-3.5 0c.6 0 1.1.5 1.1 1.1 0 .6-.5 1.1-1.1 1.1s-1.1-.5-1.1-1.1c0-.6.5-1.1 1.1-1.1zm-3.5 2.2c-.6 0-1.1-.5-1.1-1.1 0-.6.5-1.1 1.1-1.1.6 0 1.1.5 1.1 1.1 0 .6-.5 1.1-1.1 1.1zm32.7 18.9H8.2v-2.2h31.5v2.2zm0-4.7H8.2v-2.2h31.5v2.2zm0-4.8H8.2v-2.2h31.5V21zm0-4.8H24V14h15.8v2.2z" fill="#00C4F0"/>
    </symbol>
  </svg>
